<?xml version="1.0" encoding="UTF-8"?>
<svg width="25px" height="15px" viewBox="0 0 25 15" version="1.1" xmlns="http://www.w3.org/2000/svg" xmlns:xlink="http://www.w3.org/1999/xlink">
    <!-- Generator: Sketch 48.2 (47327) - http://www.bohemiancoding.com/sketch -->
    <title>car</title>
    <desc>Created with Sketch.</desc>
    <defs></defs>
    <g id="Final" stroke="none" stroke-width="1" fill="none" fill-rule="evenodd">
        <g id="Group-13" transform="translate(-170.000000, 0.000000)" fill="#FFFFFF">
            <g id="car" transform="translate(170.000000, 0.000000)">
                <g id="Car-insurance" transform="translate(0.000000, 0.500000)">
                    <path d="M19.9282561,9.35602351 C19.0688304,9.35602351 18.3698377,10.0377779 18.3698377,10.8753907 C18.3698377,11.7135061 19.0688304,12.3947578 19.9282561,12.3947578 C20.7866501,12.3947578 21.4851269,11.7135061 21.4851269,10.8753907 C21.4851269,10.0377779 20.7866501,9.35602351 19.9282561,9.35602351 M19.9282561,13.7069842 C18.3270212,13.7069842 17.0234385,12.4364876 17.0234385,10.8753907 C17.0234385,9.31429371 18.3270212,8.04429987 19.9282561,8.04429987 C21.5284593,8.04429987 22.8304945,9.31429371 22.8304945,10.8753907 C22.8304945,12.4364876 21.5284593,13.7069842 19.9282561,13.7069842" id="Fill-3"></path>
                    <path d="M5.48618995,9.32434908 C4.60716149,9.32434908 3.89269293,10.0206838 3.89269293,10.8758934 C3.89269293,11.731103 4.60716149,12.426935 5.48618995,12.426935 C6.36470255,12.426935 7.07813938,11.731103 7.07813938,10.8758934 C7.07813938,10.0206838 6.36470255,9.32434908 5.48618995,9.32434908 M5.48618995,13.7069842 C3.88392328,13.7069842 2.57930886,12.4369904 2.57930886,10.8758934 C2.57930886,9.31479648 3.88392328,8.04429987 5.48618995,8.04429987 C7.08794075,8.04429987 8.39049172,9.31479648 8.39049172,10.8758934 C8.39049172,12.4369904 7.08794075,13.7069842 5.48618995,13.7069842" id="Fill-5"></path>
                    <path d="M9.26765583,4.26996176 L9.26765583,1.04821966 C9.60760873,1.0266006 9.95426784,1.01604246 10.2998952,1.01604246 C11.5849069,1.01604246 12.9287268,1.16637031 14.2957605,1.46300387 L16.641384,4.26996176 L9.26765583,4.26996176 Z M8.2194247,4.26996176 L2.7853368,4.26996176 L2.81835195,3.20509756 C3.09072697,2.98387932 4.92616315,1.58668498 8.2194247,1.1472651 L8.2194247,4.26996176 Z M24.6336304,8.15988351 C24.6336304,5.60481277 18.0290522,4.02259954 18.0290522,4.02259954 L14.8833271,0.496682351 C10.8487722,-0.729067841 5.76392267,0.699800922 5.76392267,0.699800922 C1.04533504,1.77522326 0.519156031,4.88987562 0.519156031,4.88987562 L0.468085716,7.39215564 C-0.908749354,10.3077116 1.15057084,11.2116898 1.55449061,11.3569899 C1.55449061,11.3288349 1.55036371,11.3031937 1.55036371,11.2760442 C1.55036371,9.15838223 3.31925373,7.43438822 5.49257938,7.43438822 C7.66745261,7.43438822 9.43582676,9.15838223 9.43582676,11.2760442 C9.43582676,11.3102324 9.42912056,11.343918 9.42808884,11.3776035 L15.9981044,11.3776035 C15.9981044,11.343918 15.9939775,11.3102324 15.9939775,11.2760442 C15.9939775,9.15838223 17.7633834,7.43438822 19.9377407,7.43438822 C21.9526968,7.43438822 23.6148034,8.91504216 23.847973,10.8185246 C24.9725516,9.89644674 24.6336304,8.15988351 24.6336304,8.15988351 L24.6336304,8.15988351 Z" id="Fill-7"></path>
                </g>
            </g>
        </g>
    </g>
</svg>
