<?xml version="1.0" encoding="UTF-8"?>
<svg width="25px" height="20px" viewBox="0 0 25 20" version="1.1" xmlns="http://www.w3.org/2000/svg" xmlns:xlink="http://www.w3.org/1999/xlink">
    <!-- Generator: Sketch 48.2 (47327) - http://www.bohemiancoding.com/sketch -->
    <title>ambulance</title>
    <desc>Created with Sketch.</desc>
    <defs>
        <polygon id="path-1" points="4.13223141e-05 0.0504032632 24.9413223 0.0504032632 24.9413223 16.7762849 4.13223141e-05 16.7762849"></polygon>
    </defs>
    <g id="Final" stroke="none" stroke-width="1" fill="none" fill-rule="evenodd">
        <g id="Group-13" transform="translate(-170.000000, -47.000000)">
            <g id="ambulance" transform="translate(170.000000, 47.000000)">
                <g id="Group-16">
                    <g id="Person-ulykkesforsikring---Accident-insurance-for-Employees" transform="translate(0.000000, 0.500000)">
                        <g id="Page-1" transform="translate(12.500000, 10.247059) scale(-1, 1) translate(-12.500000, -10.247059) translate(0.000000, 0.247059)">
                            <path d="M18.6785744,17.4371381 C18.0085331,17.4371381 17.464938,16.8950964 17.464938,16.2253336 C17.464938,15.5561897 18.0085331,15.0137354 18.6785744,15.0137354 C19.3488223,15.0137354 19.8922108,15.5561897 19.8922108,16.2253336 C19.8922108,16.8950964 19.3488223,17.4371381 18.6785744,17.4371381 M18.6785744,13.3040449 C17.0630785,13.3040449 15.7531612,14.6126204 15.7531612,16.2253336 C15.7531612,17.8394911 17.0630785,19.1472413 18.6785744,19.1472413 C20.2940703,19.1472413 21.6041942,17.8394911 21.6041942,16.2253336 C21.6041942,14.6126204 20.2940703,13.3040449 18.6785744,13.3040449 M5.9453099,17.4371381 C5.2752686,17.4371381 4.73188017,16.8950964 4.73188017,16.2253336 C4.73188017,15.5561897 5.2752686,15.0137354 5.9453099,15.0137354 C6.61555785,15.0137354 7.1591529,15.5561897 7.1591529,16.2253336 C7.1591529,16.8950964 6.61555785,17.4371381 5.9453099,17.4371381 M5.9453099,13.3040449 C4.33002066,13.3040449 3.02010331,14.6126204 3.02010331,16.2253336 C3.02010331,17.8394911 4.33002066,19.1472413 5.9453099,19.1472413 C7.5608058,19.1472413 8.87113635,17.8394911 8.87113635,16.2253336 C8.87113635,14.6126204 7.5608058,13.3040449 5.9453099,13.3040449" id="Fill-1" fill="#FFFFFF" fill-rule="nonzero"></path>
                            <g id="Group-5" transform="translate(0.000000, 0.083008)">
                                <g id="Fill-3-Clipped">
                                    <mask id="mask-2" fill="white">
                                        <use xlink:href="#path-1"></use>
                                    </mask>
                                    <g id="path-1"></g>
                                    <path d="M19.6436364,7.45742879 L17.8345455,7.45742879 L17.8345455,9.26409664 L15.4349587,9.26409664 L15.4349587,7.45742879 L13.6256612,7.45742879 L13.6256612,5.06105593 L15.4349587,5.06105593 L15.4349587,3.25438806 L17.8345455,3.25438806 L17.8345455,5.06105593 L19.6436364,5.06105593 L19.6436364,7.45742879 Z M7.9264876,9.77549214 L5.8136777,9.76435004 C5.82586775,9.68635549 5.8085124,9.60382154 5.7583058,9.53531836 L4.81698347,8.25356636 C4.71698347,8.11759165 4.52566116,8.08808581 4.38867769,8.18774554 C4.25231405,8.2878179 4.22297521,8.4790903 4.32297521,8.61568398 L4.70293389,9.13317176 L4.30045455,9.41151748 L4.18495868,9.20373829 L3.58268595,8.82676452 C4.04838843,7.91806586 4.68826447,6.71245141 4.90024794,6.44793013 C5.2052066,6.06703603 5.33268595,5.96531292 5.89198345,5.96531292 L7.9264876,5.96531292 L7.9264876,9.77549214 Z M4.51780992,9.757541 L4.94466942,9.46227586 L5.1638843,9.76104869 L4.51780992,9.757541 Z M11.3967356,0.123408869 C9.94859505,0.123408869 8.7750413,1.78971475 8.7750413,3.23529665 L8.7750413,4.95468491 L5.3386777,4.95468491 C4.73061983,4.95468491 4.12318182,5.47093468 3.34942149,7.01782699 C2.57628099,8.5649256 1.96842975,9.72514645 1.96842975,9.72514645 C1.96842975,9.72514645 0.43123967,10.4980767 0.0998347105,11.2716261 C0.0537603305,11.3793329 0.0215289256,11.5547175 4.13223141e-05,11.7742577 C0.57628099,11.77075 0.902727275,11.7494976 0.902727275,12.3247591 L0.902727275,13.7821021 C0.902727275,14.1396804 0.764917355,14.3047482 0.379586777,14.3047482 L0.0111983471,14.3047482 C0.0649173555,15.3411681 0.145289256,16.2329473 0.145289256,16.2329473 L2.40190082,16.2329473 C2.40107438,16.2028225 2.39714876,16.1731102 2.39714876,16.1423663 C2.39714876,14.186312 3.98619835,12.5993908 5.94528925,12.5993908 C7.905,12.5993908 9.49342975,14.186312 9.49342975,16.1423663 C9.49342975,16.1724912 9.48950415,16.2015844 9.4888843,16.2317093 L15.1351653,16.2317093 C15.1343389,16.2015844 15.1304132,16.1724912 15.1304132,16.1423663 C15.1304132,14.186312 16.7192562,12.5993908 18.6785537,12.5993908 C20.6378513,12.5993908 22.2266942,14.186312 22.2266942,16.1423663 C22.2266942,16.1724912 22.2227686,16.2015844 22.2221487,16.2317093 L24.9413636,16.2317093 L24.9413636,3.23529665 C24.9413636,1.78971475 23.7678099,0.123408869 22.3196694,0.123408869 L11.3967356,0.123408869 Z" id="Fill-3" fill="#FFFFFF" fill-rule="nonzero" mask="url(#mask-2)"></path>
                                </g>
                            </g>
                        </g>
                    </g>
                </g>
            </g>
        </g>
    </g>
</svg>