<?xml version="1.0" encoding="UTF-8"?>
<svg width="25px" height="23px" viewBox="0 0 25 23" version="1.1" xmlns="http://www.w3.org/2000/svg" xmlns:xlink="http://www.w3.org/1999/xlink">
    <!-- Generator: Sketch 48.2 (47327) - http://www.bohemiancoding.com/sketch -->
    <title>house</title>
    <desc>Created with Sketch.</desc>
    <defs></defs>
    <g id="Final" stroke="none" stroke-width="1" fill="none" fill-rule="evenodd">
        <g id="Group-13" transform="translate(-225.000000, -246.000000)" fill="#FFFFFF" fill-rule="nonzero">
            <g id="house" transform="translate(225.000000, 246.000000)">
                <g id="Group-22">
                    <g id="Forsikring-af-foreninger-og-boligforeninger---Housing-association-insurance">
                        <path d="M24.376758,11.0924011 L19.6596378,6.50930264 L19.6596378,0.987891651 C19.6596378,0.649020907 19.3813146,0.372404828 19.0343907,0.372404828 L16.9704872,0.372404828 C16.6222566,0.372404828 16.3432801,0.649020907 16.3432801,0.987891651 L16.3432801,3.25023895 L13.4790342,0.38459904 C12.9544016,-0.12819968 12.1063653,-0.12819968 11.5830394,0.38459904 L0.684662151,11.0924011 C0.159376182,11.604558 0.159376182,12.4395407 0.684662151,12.9542648 C0.945998453,13.2109851 1.28769567,13.3393452 1.63200625,13.3393452 C1.97435681,13.3393452 2.3173607,13.2109851 2.58000369,12.9542648 L12.5297301,3.17771547 L22.4814165,12.9542648 C23.0040891,13.4670635 23.8534321,13.4689889 24.376758,12.9542648 C24.9007373,12.4395407 24.9026974,11.6071252 24.376758,11.0924011" id="Fill-71"></path>
                        <path d="M12.5009831,5.77620587 L21.5386458,14.6568015 L21.5386458,21.6325327 C21.5386458,22.2923038 20.9957197,22.8269238 20.3260453,22.8269238 L11.0669001,22.8269238 L11.0669001,16.7041456 L7.63751448,16.7041456 L7.63751448,22.8269238 L4.77326862,22.8269238 C4.10163431,22.8269238 3.55740147,22.2923038 3.55740147,21.6325327 L3.55740147,14.5630986 L12.5009831,5.77620587 Z M13.961853,19.8316401 L18.0328193,19.8316401 L18.0328193,16.7041456 L13.961853,16.7041456 L13.961853,19.8316401 Z" id="Combined-Shape"></path>
                    </g>
                </g>
            </g>
        </g>
    </g>
</svg>