<?xml version="1.0" encoding="UTF-8"?>
<svg width="21px" height="22px" viewBox="0 0 21 22" version="1.1" xmlns="http://www.w3.org/2000/svg" xmlns:xlink="http://www.w3.org/1999/xlink">
    <!-- Generator: Sketch 48.2 (47327) - http://www.bohemiancoding.com/sketch -->
    <title>animals</title>
    <desc>Created with Sketch.</desc>
    <defs></defs>
    <g id="Final" stroke="none" stroke-width="1" fill="none" fill-rule="evenodd">
        <g id="Group-13" transform="translate(-170.000000, -146.000000)" fill="#FFFFFF">
            <g id="animals" transform="translate(170.000000, 146.000000)">
                <g id="Group-19">
                    <g id="Animals" transform="translate(0.000000, 0.369995)">
                        <path d="M9.30790373,16.8511833 C9.28807329,16.6832522 9.26399348,16.6279749 9.19387874,16.457245 C9.10180887,16.2347363 8.97716043,15.9317606 8.85817783,15.3747891 C8.790896,15.0606181 8.74415283,14.9836496 8.69032737,14.8968852 C8.55930486,14.6813737 8.42544944,14.4336753 8.35887584,13.9725645 C8.27530473,13.3925026 8.28380349,13.1657956 8.30292569,12.9131992 C8.31425737,12.7753558 8.3270055,12.6186201 8.26822243,12.0574504 C8.25547429,11.9384992 8.23918501,11.8111514 8.22006281,11.683104 C8.09116499,10.8126612 8.06141934,10.2298003 8.16057151,9.74210046 C8.11028719,9.58256593 8.09966375,9.41673398 8.12445179,9.16413763 C8.14640691,8.93253266 8.42403298,8.79049095 8.43748935,8.78139468 C8.54797319,8.70512598 8.65349942,8.62675814 8.75406805,8.5434923 C8.89783869,8.35596925 9.06568915,8.15515165 9.26328525,7.93264296 C9.36172919,7.82278804 9.47079657,7.69893886 9.58907095,7.56109542 C9.82774438,7.13916855 9.96018334,6.6745592 9.96018334,6.1854599 C9.96018334,5.66977151 9.81570447,5.21425843 9.552243,4.77623816 L9.55153477,2.25237381 C9.46300605,2.15371429 9.38651723,2.04315966 9.32206832,1.92350876 L7.41055618,3.06194161 C6.81705964,2.84153205 6.15203189,2.71698316 5.44946796,2.71698316 C4.75752748,2.71698316 4.10170671,2.8387332 3.51529247,3.05004649 L1.47346605,1.87452885 C1.39201963,1.82484924 1.32402957,1.85773575 1.32402957,1.94799871 L1.32190488,4.77413902 C1.07331623,5.20306302 0.938752575,5.68376577 0.938752575,6.1854599 C0.938752575,7.20634099 1.51595983,8.12786285 2.43240915,8.76110301 C2.52022964,8.8205786 2.73057388,8.93253266 2.76244422,9.16413763 C2.89205027,10.1115489 2.02517704,10.3004713 1.44159571,12.3758197 C0.635630234,15.2446425 1.93664832,14.7107616 2.09670824,16.4369533 C2.17532175,17.2717108 2.45082313,16.7210367 1.71922178,19.2274082 C1.52162567,19.9033309 0.533645148,19.75919 0.532228688,20.3623425 C0.531520459,20.6821113 0.644128992,20.9319088 1.14059806,20.9403054 L9.54799362,20.9403054 C9.58836272,20.1727203 9.5451607,18.8278722 9.30790373,16.8511833" id="Fill-79"></path>
                        <path d="M20.8088865,21.4792398 C20.7749007,20.7079988 20.3179218,20.4166525 19.920549,20.2838937 C19.6826481,20.2022754 19.4656616,20.1769634 19.3741612,20.1382206 C18.8884252,19.9310755 19.0986145,17.4143398 19.2659294,16.0185639 C19.3203068,15.5613983 19.4635701,15.5422852 19.608925,14.860411 C19.7548026,14.1795699 19.9038175,14.3273093 19.968652,13.8747928 C20.0779295,13.11285 19.9320519,13.4506877 20.0324408,12.4919312 C20.0418523,12.392233 20.0554466,12.2894353 20.0716552,12.1814719 C20.3147847,10.5537555 20.035578,10.7774309 18.8235907,9.24992937 C18.4821637,8.82065856 17.4641571,7.63409414 17.3120051,7.09169421 C17.3083451,7.07877992 17.3046851,7.06431592 17.3020708,7.05088507 C17.2785421,6.9150268 17.3109594,6.85407138 17.3329195,6.80964624 C17.3376252,6.79879824 17.342331,6.78795025 17.3486053,6.77813539 C17.4850715,6.52501542 17.8338185,6.23831831 18.0115905,5.68455381 C18.0910651,5.43711613 17.9289788,4.18288086 17.7637554,3.08413357 C18.0027019,3.69730377 18.2019112,4.30014256 18.4800723,4.6493448 C18.6290871,4.83427735 18.8246364,4.92932648 18.9950884,4.92157791 C19.182272,4.92932648 19.3443583,4.82136306 19.3940299,4.58270709 C19.5817363,3.68800549 20.4345194,2.85735874 20.1328297,1.99623427 C19.8949289,1.31900921 19.534679,1.26166979 19.0248914,1.17540238 C18.8737851,1.14957381 18.7169274,1.11496353 18.5600697,1.07777039 C18.0628307,0.93468012 17.1190701,0.504892745 16.4576534,0.460984179 C16.106815,0.437738468 15.3852695,0.578245879 15.1212257,0.580312164 L15.105017,1.47191434 L15.0872398,0.558616167 C14.8247646,0.55603331 14.1032191,0.413459614 13.7508121,0.43877161 C13.0893954,0.483196748 12.1472034,0.91195098 11.6483958,1.05452468 C11.4915381,1.09223439 11.3357261,1.1263281 11.184097,1.15112352 C10.6743094,1.2399738 10.3145824,1.2957635 10.0766815,1.97195542 C9.77446895,2.83307988 10.6267292,3.66475978 10.8144356,4.55946138 C10.8646301,4.79811735 11.0272392,4.90763048 11.2133771,4.89884877 C11.3838291,4.90763048 11.5799013,4.81154821 11.7289161,4.62506594 C12.0070771,4.27689684 12.2062864,3.67457463 12.445233,3.06088785 C12.2800096,4.15963515 12.1179232,5.41387042 12.1973978,5.6613081 C12.3756928,6.21662232 12.7244398,6.50176971 12.8603831,6.75385654 C12.8666574,6.76625425 12.8708403,6.77555253 12.8765917,6.7869171 C12.8985518,6.83185881 12.9304462,6.89229766 12.9063947,7.0286725 C12.9048261,7.04261993 12.9006433,7.05450107 12.8969832,7.06896507 C12.7448313,7.61084843 11.7268247,8.79792942 11.3859206,9.22823337 C10.1734104,10.753152 9.89420367,10.5305098 10.1373331,12.1582261 C10.1535418,12.2661896 10.1666132,12.3695038 10.1770704,12.4692021 C10.2769365,13.4264088 10.1310588,13.0896043 10.2408592,13.8520636 C10.3062166,14.3040636 10.4541857,14.155291 10.6000634,14.8381984 C10.7454182,15.5190394 10.8886816,15.5397023 10.9435818,15.9958348 C11.1108967,17.3921272 11.3200403,19.9078297 10.83535,20.1149749 C10.7433268,20.1552674 10.5268631,20.1790297 10.2884394,20.2596148 C9.89106652,20.3949565 9.43461056,20.6847531 9.40010186,21.4570273 L14.630261,21.4570273 L14.6297382,21.4792398 L20.8088865,21.4792398 Z" id="Fill-80"></path>
                    </g>
                </g>
            </g>
        </g>
    </g>
</svg>